<svg xmlns="http://www.w3.org/2000/svg" xmlns:xlink="http://www.w3.org/1999/xlink" width="500" zoomAndPan="magnify" viewBox="0 0 375 374.999991" height="500" preserveAspectRatio="xMidYMid meet" version="1.0"><defs><g/></defs><g fill="#000000" fill-opacity="1"><g transform="translate(115.86579, 198.743526)"><g><path d="M 25.546875 -8.703125 C 27.015625 -8.703125 28.441406 -8.921875 29.828125 -9.359375 C 31.210938 -9.804688 32.226562 -10.238281 32.875 -10.65625 L 33.84375 -11.3125 L 37.9375 -3.125 C 37.800781 -3.019531 37.613281 -2.878906 37.375 -2.703125 C 37.132812 -2.535156 36.578125 -2.222656 35.703125 -1.765625 C 34.835938 -1.304688 33.910156 -0.90625 32.921875 -0.5625 C 31.929688 -0.21875 30.632812 0.0859375 29.03125 0.359375 C 27.425781 0.628906 25.769531 0.765625 24.0625 0.765625 C 20.132812 0.765625 16.410156 -0.195312 12.890625 -2.125 C 9.378906 -4.050781 6.546875 -6.703125 4.390625 -10.078125 C 2.242188 -13.460938 1.171875 -17.117188 1.171875 -21.046875 C 1.171875 -24.015625 1.800781 -26.863281 3.0625 -29.59375 C 4.332031 -32.320312 6.015625 -34.660156 8.109375 -36.609375 C 10.210938 -38.554688 12.660156 -40.109375 15.453125 -41.265625 C 18.253906 -42.429688 21.125 -43.015625 24.0625 -43.015625 C 26.789062 -43.015625 29.304688 -42.6875 31.609375 -42.03125 C 33.921875 -41.382812 35.550781 -40.738281 36.5 -40.09375 L 37.9375 -39.125 L 33.84375 -30.921875 C 33.601562 -31.128906 33.242188 -31.378906 32.765625 -31.671875 C 32.285156 -31.960938 31.328125 -32.34375 29.890625 -32.8125 C 28.460938 -33.289062 27.015625 -33.53125 25.546875 -33.53125 C 23.222656 -33.53125 21.140625 -33.15625 19.296875 -32.40625 C 17.453125 -31.65625 15.992188 -30.664062 14.921875 -29.4375 C 13.847656 -28.207031 13.03125 -26.882812 12.46875 -25.46875 C 11.90625 -24.050781 11.625 -22.609375 11.625 -21.140625 C 11.625 -17.929688 12.828125 -15.054688 15.234375 -12.515625 C 17.640625 -9.972656 21.078125 -8.703125 25.546875 -8.703125 Z M 25.546875 -8.703125 "/></g></g></g><g fill="#000000" fill-opacity="1"><g transform="translate(149.604693, 198.743526)"><g><path d="M 3.9375 -40.90625 C 5 -41.96875 6.265625 -42.5 7.734375 -42.5 C 9.203125 -42.5 10.460938 -41.96875 11.515625 -40.90625 C 12.578125 -39.851562 13.109375 -38.59375 13.109375 -37.125 C 13.109375 -35.65625 12.578125 -34.390625 11.515625 -33.328125 C 10.460938 -32.273438 9.203125 -31.75 7.734375 -31.75 C 6.265625 -31.75 5 -32.273438 3.9375 -33.328125 C 2.882812 -34.390625 2.359375 -35.65625 2.359375 -37.125 C 2.359375 -38.59375 2.882812 -39.851562 3.9375 -40.90625 Z M 3.078125 -26.265625 L 3.078125 0 L 12.140625 0 L 12.140625 -26.265625 Z M 3.078125 -26.265625 "/></g></g></g><g fill="#000000" fill-opacity="1"><g transform="translate(160.252739, 198.743526)"><g><path d="M 4.859375 -3.25 C 2.398438 -5.925781 1.171875 -9.207031 1.171875 -13.09375 C 1.171875 -16.988281 2.398438 -20.285156 4.859375 -22.984375 C 7.316406 -25.679688 10.441406 -27.03125 14.234375 -27.03125 C 17.710938 -27.03125 20.582031 -25.941406 22.84375 -23.765625 L 22.84375 -26.265625 L 31.90625 -26.265625 L 31.90625 0 L 22.9375 0 L 22.9375 -2.96875 L 22.84375 -2.96875 C 20.582031 -0.476562 17.710938 0.765625 14.234375 0.765625 C 10.441406 0.765625 7.316406 -0.570312 4.859375 -3.25 Z M 12.5625 -17.5625 C 11.382812 -16.40625 10.796875 -14.921875 10.796875 -13.109375 C 10.796875 -11.296875 11.359375 -9.816406 12.484375 -8.671875 C 13.617188 -7.535156 15.109375 -6.96875 16.953125 -6.96875 C 18.722656 -6.96875 20.179688 -7.546875 21.328125 -8.703125 C 22.472656 -9.867188 23.046875 -11.335938 23.046875 -13.109375 C 23.046875 -14.921875 22.457031 -16.40625 21.28125 -17.5625 C 20.101562 -18.71875 18.660156 -19.296875 16.953125 -19.296875 C 15.210938 -19.296875 13.75 -18.71875 12.5625 -17.5625 Z M 12.5625 -17.5625 "/></g></g></g><g fill="#000000" fill-opacity="1"><g transform="translate(190.407696, 198.743526)"><g><path d="M 3.078125 0 L 3.078125 -26.265625 L 12.140625 -26.265625 L 12.140625 -22.484375 L 12.234375 -22.484375 C 12.304688 -22.617188 12.414062 -22.785156 12.5625 -22.984375 C 12.71875 -23.191406 13.050781 -23.550781 13.5625 -24.0625 C 14.082031 -24.570312 14.628906 -25.03125 15.203125 -25.4375 C 15.785156 -25.851562 16.535156 -26.222656 17.453125 -26.546875 C 18.378906 -26.867188 19.320312 -27.03125 20.28125 -27.03125 C 21.269531 -27.03125 22.238281 -26.894531 23.1875 -26.625 C 24.144531 -26.351562 24.847656 -26.082031 25.296875 -25.8125 L 26.015625 -25.390625 L 22.21875 -17.71875 C 21.09375 -18.675781 19.523438 -19.15625 17.515625 -19.15625 C 16.421875 -19.15625 15.476562 -18.914062 14.6875 -18.4375 C 13.90625 -17.957031 13.351562 -17.375 13.03125 -16.6875 C 12.707031 -16.007812 12.476562 -15.429688 12.34375 -14.953125 C 12.207031 -14.472656 12.140625 -14.097656 12.140625 -13.828125 L 12.140625 0 Z M 3.078125 0 "/></g></g></g><g fill="#000000" fill-opacity="1"><g transform="translate(211.090791, 198.743526)"><g><path d="M 4.859375 -3.25 C 2.398438 -5.925781 1.171875 -9.207031 1.171875 -13.09375 C 1.171875 -16.988281 2.398438 -20.285156 4.859375 -22.984375 C 7.316406 -25.679688 10.441406 -27.03125 14.234375 -27.03125 C 17.710938 -27.03125 20.582031 -25.941406 22.84375 -23.765625 L 22.84375 -26.265625 L 31.90625 -26.265625 L 31.90625 0 L 22.9375 0 L 22.9375 -2.96875 L 22.84375 -2.96875 C 20.582031 -0.476562 17.710938 0.765625 14.234375 0.765625 C 10.441406 0.765625 7.316406 -0.570312 4.859375 -3.25 Z M 12.5625 -17.5625 C 11.382812 -16.40625 10.796875 -14.921875 10.796875 -13.109375 C 10.796875 -11.296875 11.359375 -9.816406 12.484375 -8.671875 C 13.617188 -7.535156 15.109375 -6.96875 16.953125 -6.96875 C 18.722656 -6.96875 20.179688 -7.546875 21.328125 -8.703125 C 22.472656 -9.867188 23.046875 -11.335938 23.046875 -13.109375 C 23.046875 -14.921875 22.457031 -16.40625 21.28125 -17.5625 C 20.101562 -18.71875 18.660156 -19.296875 16.953125 -19.296875 C 15.210938 -19.296875 13.75 -18.71875 12.5625 -17.5625 Z M 12.5625 -17.5625 "/></g></g></g><g fill="#000000" fill-opacity="1"><g transform="translate(241.245742, 198.743526)"><g><path d="M 8.90625 -10.953125 C 10.539062 -10.953125 11.929688 -10.378906 13.078125 -9.234375 C 14.222656 -8.097656 14.796875 -6.707031 14.796875 -5.0625 C 14.796875 -3.457031 14.222656 -2.082031 13.078125 -0.9375 C 11.929688 0.195312 10.539062 0.765625 8.90625 0.765625 C 7.300781 0.765625 5.925781 0.195312 4.78125 -0.9375 C 3.644531 -2.082031 3.078125 -3.457031 3.078125 -5.0625 C 3.078125 -6.707031 3.644531 -8.097656 4.78125 -9.234375 C 5.925781 -10.378906 7.300781 -10.953125 8.90625 -10.953125 Z M 8.90625 -10.953125 "/></g></g></g><g fill="#000000" fill-opacity="1"><g transform="translate(149.188743, 218.83979)"><g><path d="M 6 -6.796875 C 6.164062 -6.703125 6.25 -6.566406 6.25 -6.390625 C 6.25 -6.265625 6.207031 -6.148438 6.125 -6.046875 C 6.039062 -5.929688 5.925781 -5.875 5.78125 -5.875 C 5.6875 -5.875 5.59375 -5.898438 5.5 -5.953125 C 5.082031 -6.191406 4.625 -6.3125 4.125 -6.3125 C 3.613281 -6.3125 3.160156 -6.195312 2.765625 -5.96875 C 2.367188 -5.738281 2.054688 -5.421875 1.828125 -5.015625 C 1.609375 -4.609375 1.5 -4.140625 1.5 -3.609375 C 1.5 -3.035156 1.613281 -2.539062 1.84375 -2.125 C 2.070312 -1.71875 2.382812 -1.40625 2.78125 -1.1875 C 3.175781 -0.96875 3.625 -0.859375 4.125 -0.859375 C 4.632812 -0.859375 5.09375 -0.984375 5.5 -1.234375 C 5.582031 -1.273438 5.675781 -1.296875 5.78125 -1.296875 C 5.925781 -1.296875 6.046875 -1.238281 6.140625 -1.125 C 6.222656 -1.019531 6.265625 -0.910156 6.265625 -0.796875 C 6.265625 -0.710938 6.238281 -0.632812 6.1875 -0.5625 C 6.144531 -0.488281 6.085938 -0.429688 6.015625 -0.390625 C 5.742188 -0.242188 5.441406 -0.125 5.109375 -0.03125 C 4.773438 0.0625 4.445312 0.109375 4.125 0.109375 C 3.457031 0.109375 2.84375 -0.0351562 2.28125 -0.328125 C 1.71875 -0.628906 1.269531 -1.0625 0.9375 -1.625 C 0.601562 -2.1875 0.4375 -2.847656 0.4375 -3.609375 C 0.4375 -4.304688 0.597656 -4.929688 0.921875 -5.484375 C 1.242188 -6.046875 1.679688 -6.488281 2.234375 -6.8125 C 2.796875 -7.132812 3.425781 -7.296875 4.125 -7.296875 C 4.789062 -7.296875 5.414062 -7.128906 6 -6.796875 Z M 6 -6.796875 "/></g></g></g><g fill="#000000" fill-opacity="1"><g transform="translate(162.480854, 218.83979)"><g><path d="M 5.84375 -2.703125 C 5.84375 -2.160156 5.722656 -1.675781 5.484375 -1.25 C 5.242188 -0.832031 4.914062 -0.5 4.5 -0.25 C 4.082031 -0.0078125 3.625 0.109375 3.125 0.109375 C 2.625 0.109375 2.164062 -0.0078125 1.75 -0.25 C 1.332031 -0.5 1.003906 -0.832031 0.765625 -1.25 C 0.523438 -1.675781 0.40625 -2.160156 0.40625 -2.703125 C 0.40625 -3.234375 0.523438 -3.71875 0.765625 -4.15625 C 1.003906 -4.59375 1.332031 -4.929688 1.75 -5.171875 C 2.164062 -5.410156 2.625 -5.53125 3.125 -5.53125 C 3.625 -5.53125 4.082031 -5.410156 4.5 -5.171875 C 4.914062 -4.929688 5.242188 -4.59375 5.484375 -4.15625 C 5.722656 -3.71875 5.84375 -3.234375 5.84375 -2.703125 Z M 4.875 -2.703125 C 4.875 -3.078125 4.796875 -3.410156 4.640625 -3.703125 C 4.484375 -3.992188 4.269531 -4.21875 4 -4.375 C 3.738281 -4.539062 3.445312 -4.625 3.125 -4.625 C 2.800781 -4.625 2.503906 -4.539062 2.234375 -4.375 C 1.972656 -4.21875 1.765625 -3.992188 1.609375 -3.703125 C 1.453125 -3.410156 1.375 -3.078125 1.375 -2.703125 C 1.375 -2.335938 1.453125 -2.007812 1.609375 -1.71875 C 1.765625 -1.4375 1.972656 -1.210938 2.234375 -1.046875 C 2.503906 -0.878906 2.800781 -0.796875 3.125 -0.796875 C 3.445312 -0.796875 3.738281 -0.878906 4 -1.046875 C 4.269531 -1.210938 4.484375 -1.4375 4.640625 -1.71875 C 4.796875 -2.007812 4.875 -2.335938 4.875 -2.703125 Z M 4.875 -2.703125 "/></g></g></g><g fill="#000000" fill-opacity="1"><g transform="translate(175.443342, 218.83979)"><g><path d="M 5.109375 -7.625 C 5.253906 -7.625 5.375 -7.578125 5.46875 -7.484375 C 5.5625 -7.398438 5.609375 -7.285156 5.609375 -7.140625 L 5.609375 -0.5 C 5.609375 -0.351562 5.5625 -0.234375 5.46875 -0.140625 C 5.375 -0.046875 5.253906 0 5.109375 0 C 4.972656 0 4.859375 -0.046875 4.765625 -0.140625 C 4.671875 -0.234375 4.625 -0.351562 4.625 -0.5 L 4.625 -0.78125 C 4.457031 -0.53125 4.21875 -0.316406 3.90625 -0.140625 C 3.59375 0.0234375 3.253906 0.109375 2.890625 0.109375 C 2.429688 0.109375 2.007812 -0.0078125 1.625 -0.25 C 1.25 -0.5 0.953125 -0.835938 0.734375 -1.265625 C 0.515625 -1.691406 0.40625 -2.175781 0.40625 -2.71875 C 0.40625 -3.25 0.507812 -3.726562 0.71875 -4.15625 C 0.9375 -4.59375 1.234375 -4.929688 1.609375 -5.171875 C 1.992188 -5.410156 2.410156 -5.53125 2.859375 -5.53125 C 3.222656 -5.53125 3.5625 -5.453125 3.875 -5.296875 C 4.1875 -5.148438 4.4375 -4.957031 4.625 -4.71875 L 4.625 -7.140625 C 4.625 -7.285156 4.671875 -7.398438 4.765625 -7.484375 C 4.859375 -7.578125 4.972656 -7.625 5.109375 -7.625 Z M 3.015625 -0.796875 C 3.335938 -0.796875 3.625 -0.878906 3.875 -1.046875 C 4.125 -1.210938 4.316406 -1.441406 4.453125 -1.734375 C 4.597656 -2.023438 4.671875 -2.351562 4.671875 -2.71875 C 4.671875 -3.070312 4.597656 -3.394531 4.453125 -3.6875 C 4.316406 -3.976562 4.125 -4.207031 3.875 -4.375 C 3.625 -4.539062 3.335938 -4.625 3.015625 -4.625 C 2.691406 -4.625 2.40625 -4.539062 2.15625 -4.375 C 1.90625 -4.207031 1.707031 -3.976562 1.5625 -3.6875 C 1.414062 -3.394531 1.34375 -3.070312 1.34375 -2.71875 C 1.34375 -2.351562 1.414062 -2.023438 1.5625 -1.734375 C 1.707031 -1.441406 1.90625 -1.210938 2.15625 -1.046875 C 2.40625 -0.878906 2.691406 -0.796875 3.015625 -0.796875 Z M 3.015625 -0.796875 "/></g></g></g><g fill="#000000" fill-opacity="1"><g transform="translate(188.488238, 218.83979)"><g><path d="M 1.65625 -0.5 C 1.65625 -0.351562 1.609375 -0.234375 1.515625 -0.140625 C 1.421875 -0.046875 1.304688 0 1.171875 0 C 1.023438 0 0.90625 -0.046875 0.8125 -0.140625 C 0.726562 -0.234375 0.6875 -0.351562 0.6875 -0.5 L 0.6875 -4.953125 C 0.6875 -5.097656 0.726562 -5.21875 0.8125 -5.3125 C 0.90625 -5.40625 1.023438 -5.453125 1.171875 -5.453125 C 1.304688 -5.453125 1.421875 -5.40625 1.515625 -5.3125 C 1.609375 -5.21875 1.65625 -5.097656 1.65625 -4.953125 Z M 1.15625 -6.140625 C 0.957031 -6.140625 0.816406 -6.175781 0.734375 -6.25 C 0.648438 -6.320312 0.609375 -6.4375 0.609375 -6.59375 L 0.609375 -6.75 C 0.609375 -6.914062 0.65625 -7.03125 0.75 -7.09375 C 0.84375 -7.164062 0.984375 -7.203125 1.171875 -7.203125 C 1.359375 -7.203125 1.492188 -7.164062 1.578125 -7.09375 C 1.671875 -7.019531 1.71875 -6.90625 1.71875 -6.75 L 1.71875 -6.59375 C 1.71875 -6.425781 1.671875 -6.304688 1.578125 -6.234375 C 1.492188 -6.171875 1.351562 -6.140625 1.15625 -6.140625 Z M 1.15625 -6.140625 "/></g></g></g><g fill="#000000" fill-opacity="1"><g transform="translate(197.546734, 218.83979)"><g><path d="M 3.484375 -5.53125 C 4.722656 -5.53125 5.34375 -4.785156 5.34375 -3.296875 L 5.34375 -0.5 C 5.34375 -0.351562 5.296875 -0.234375 5.203125 -0.140625 C 5.109375 -0.046875 4.988281 0 4.84375 0 C 4.707031 0 4.59375 -0.046875 4.5 -0.140625 C 4.40625 -0.234375 4.359375 -0.351562 4.359375 -0.5 L 4.359375 -3.296875 C 4.359375 -3.691406 4.265625 -4.007812 4.078125 -4.25 C 3.898438 -4.5 3.597656 -4.625 3.171875 -4.625 C 2.898438 -4.625 2.648438 -4.5625 2.421875 -4.4375 C 2.203125 -4.320312 2.03125 -4.160156 1.90625 -3.953125 C 1.78125 -3.753906 1.71875 -3.535156 1.71875 -3.296875 L 1.71875 -0.5 C 1.71875 -0.351562 1.671875 -0.234375 1.578125 -0.140625 C 1.484375 -0.046875 1.363281 0 1.21875 0 C 1.070312 0 0.953125 -0.046875 0.859375 -0.140625 C 0.773438 -0.234375 0.734375 -0.351562 0.734375 -0.5 L 0.734375 -4.90625 C 0.734375 -5.039062 0.78125 -5.15625 0.875 -5.25 C 0.96875 -5.351562 1.082031 -5.40625 1.21875 -5.40625 C 1.363281 -5.40625 1.484375 -5.351562 1.578125 -5.25 C 1.671875 -5.15625 1.71875 -5.039062 1.71875 -4.90625 L 1.71875 -4.546875 C 1.894531 -4.816406 2.140625 -5.046875 2.453125 -5.234375 C 2.773438 -5.429688 3.117188 -5.53125 3.484375 -5.53125 Z M 3.484375 -5.53125 "/></g></g></g><g fill="#000000" fill-opacity="1"><g transform="translate(210.334104, 218.83979)"><g><path d="M 5.25 -5.46875 C 5.394531 -5.46875 5.515625 -5.421875 5.609375 -5.328125 C 5.703125 -5.242188 5.75 -5.125 5.75 -4.96875 L 5.75 -0.4375 C 5.75 0.125 5.628906 0.59375 5.390625 0.96875 C 5.148438 1.34375 4.828125 1.617188 4.421875 1.796875 C 4.015625 1.972656 3.554688 2.0625 3.046875 2.0625 C 2.773438 2.0625 2.453125 2.015625 2.078125 1.921875 C 1.710938 1.828125 1.476562 1.726562 1.375 1.625 C 1.164062 1.507812 1.0625 1.367188 1.0625 1.203125 C 1.0625 1.160156 1.078125 1.109375 1.109375 1.046875 C 1.179688 0.867188 1.304688 0.78125 1.484375 0.78125 C 1.578125 0.78125 1.675781 0.800781 1.78125 0.84375 C 2.320312 1.0625 2.75 1.171875 3.0625 1.171875 C 3.613281 1.171875 4.035156 1.035156 4.328125 0.765625 C 4.617188 0.503906 4.765625 0.144531 4.765625 -0.3125 L 4.765625 -0.875 C 4.617188 -0.601562 4.375 -0.367188 4.03125 -0.171875 C 3.695312 0.015625 3.335938 0.109375 2.953125 0.109375 C 2.484375 0.109375 2.050781 -0.0078125 1.65625 -0.25 C 1.269531 -0.5 0.960938 -0.835938 0.734375 -1.265625 C 0.515625 -1.691406 0.40625 -2.175781 0.40625 -2.71875 C 0.40625 -3.25 0.515625 -3.726562 0.734375 -4.15625 C 0.960938 -4.59375 1.269531 -4.929688 1.65625 -5.171875 C 2.039062 -5.410156 2.46875 -5.53125 2.9375 -5.53125 C 3.3125 -5.53125 3.660156 -5.441406 3.984375 -5.265625 C 4.316406 -5.097656 4.578125 -4.890625 4.765625 -4.640625 L 4.765625 -4.96875 C 4.765625 -5.113281 4.804688 -5.234375 4.890625 -5.328125 C 4.984375 -5.421875 5.101562 -5.46875 5.25 -5.46875 Z M 3.078125 -0.796875 C 3.410156 -0.796875 3.707031 -0.878906 3.96875 -1.046875 C 4.226562 -1.210938 4.429688 -1.441406 4.578125 -1.734375 C 4.734375 -2.023438 4.8125 -2.351562 4.8125 -2.71875 C 4.8125 -3.082031 4.734375 -3.40625 4.578125 -3.6875 C 4.429688 -3.976562 4.226562 -4.207031 3.96875 -4.375 C 3.707031 -4.539062 3.410156 -4.625 3.078125 -4.625 C 2.742188 -4.625 2.445312 -4.539062 2.1875 -4.375 C 1.925781 -4.207031 1.71875 -3.976562 1.5625 -3.6875 C 1.414062 -3.394531 1.34375 -3.070312 1.34375 -2.71875 C 1.34375 -2.351562 1.414062 -2.023438 1.5625 -1.734375 C 1.71875 -1.441406 1.925781 -1.210938 2.1875 -1.046875 C 2.445312 -0.878906 2.742188 -0.796875 3.078125 -0.796875 Z M 3.078125 -0.796875 "/></g></g></g><g fill="#000000" fill-opacity="1"><g transform="translate(223.512907, 218.83979)"><g><path d="M 1.078125 -0.015625 C 0.910156 -0.015625 0.785156 -0.0546875 0.703125 -0.140625 C 0.617188 -0.234375 0.578125 -0.363281 0.578125 -0.53125 L 0.578125 -0.734375 C 0.578125 -0.898438 0.617188 -1.023438 0.703125 -1.109375 C 0.785156 -1.203125 0.910156 -1.25 1.078125 -1.25 L 1.1875 -1.25 C 1.351562 -1.25 1.476562 -1.203125 1.5625 -1.109375 C 1.65625 -1.023438 1.703125 -0.898438 1.703125 -0.734375 L 1.703125 -0.53125 C 1.703125 -0.1875 1.53125 -0.015625 1.1875 -0.015625 Z M 1.078125 -0.015625 "/></g></g></g><g fill="#000000" fill-opacity="1"><g transform="translate(128.118432, 233.089789)"><g><path d="M 6 -6.796875 C 6.164062 -6.703125 6.25 -6.566406 6.25 -6.390625 C 6.25 -6.265625 6.207031 -6.148438 6.125 -6.046875 C 6.039062 -5.929688 5.925781 -5.875 5.78125 -5.875 C 5.6875 -5.875 5.59375 -5.898438 5.5 -5.953125 C 5.082031 -6.191406 4.625 -6.3125 4.125 -6.3125 C 3.613281 -6.3125 3.160156 -6.195312 2.765625 -5.96875 C 2.367188 -5.738281 2.054688 -5.421875 1.828125 -5.015625 C 1.609375 -4.609375 1.5 -4.140625 1.5 -3.609375 C 1.5 -3.035156 1.613281 -2.539062 1.84375 -2.125 C 2.070312 -1.71875 2.382812 -1.40625 2.78125 -1.1875 C 3.175781 -0.96875 3.625 -0.859375 4.125 -0.859375 C 4.632812 -0.859375 5.09375 -0.984375 5.5 -1.234375 C 5.582031 -1.273438 5.675781 -1.296875 5.78125 -1.296875 C 5.925781 -1.296875 6.046875 -1.238281 6.140625 -1.125 C 6.222656 -1.019531 6.265625 -0.910156 6.265625 -0.796875 C 6.265625 -0.710938 6.238281 -0.632812 6.1875 -0.5625 C 6.144531 -0.488281 6.085938 -0.429688 6.015625 -0.390625 C 5.742188 -0.242188 5.441406 -0.125 5.109375 -0.03125 C 4.773438 0.0625 4.445312 0.109375 4.125 0.109375 C 3.457031 0.109375 2.84375 -0.0351562 2.28125 -0.328125 C 1.71875 -0.628906 1.269531 -1.0625 0.9375 -1.625 C 0.601562 -2.1875 0.4375 -2.847656 0.4375 -3.609375 C 0.4375 -4.304688 0.597656 -4.929688 0.921875 -5.484375 C 1.242188 -6.046875 1.679688 -6.488281 2.234375 -6.8125 C 2.796875 -7.132812 3.425781 -7.296875 4.125 -7.296875 C 4.789062 -7.296875 5.414062 -7.128906 6 -6.796875 Z M 6 -6.796875 "/></g></g></g><g fill="#000000" fill-opacity="1"><g transform="translate(141.410543, 233.089789)"><g><path d="M 5.84375 -2.703125 C 5.84375 -2.160156 5.722656 -1.675781 5.484375 -1.25 C 5.242188 -0.832031 4.914062 -0.5 4.5 -0.25 C 4.082031 -0.0078125 3.625 0.109375 3.125 0.109375 C 2.625 0.109375 2.164062 -0.0078125 1.75 -0.25 C 1.332031 -0.5 1.003906 -0.832031 0.765625 -1.25 C 0.523438 -1.675781 0.40625 -2.160156 0.40625 -2.703125 C 0.40625 -3.234375 0.523438 -3.71875 0.765625 -4.15625 C 1.003906 -4.59375 1.332031 -4.929688 1.75 -5.171875 C 2.164062 -5.410156 2.625 -5.53125 3.125 -5.53125 C 3.625 -5.53125 4.082031 -5.410156 4.5 -5.171875 C 4.914062 -4.929688 5.242188 -4.59375 5.484375 -4.15625 C 5.722656 -3.71875 5.84375 -3.234375 5.84375 -2.703125 Z M 4.875 -2.703125 C 4.875 -3.078125 4.796875 -3.410156 4.640625 -3.703125 C 4.484375 -3.992188 4.269531 -4.21875 4 -4.375 C 3.738281 -4.539062 3.445312 -4.625 3.125 -4.625 C 2.800781 -4.625 2.503906 -4.539062 2.234375 -4.375 C 1.972656 -4.21875 1.765625 -3.992188 1.609375 -3.703125 C 1.453125 -3.410156 1.375 -3.078125 1.375 -2.703125 C 1.375 -2.335938 1.453125 -2.007812 1.609375 -1.71875 C 1.765625 -1.4375 1.972656 -1.210938 2.234375 -1.046875 C 2.503906 -0.878906 2.800781 -0.796875 3.125 -0.796875 C 3.445312 -0.796875 3.738281 -0.878906 4 -1.046875 C 4.269531 -1.210938 4.484375 -1.4375 4.640625 -1.71875 C 4.796875 -2.007812 4.875 -2.335938 4.875 -2.703125 Z M 4.875 -2.703125 "/></g></g></g><g fill="#000000" fill-opacity="1"><g transform="translate(154.373031, 233.089789)"><g><path d="M 6.9375 -5.5 C 8.132812 -5.5 8.734375 -4.75 8.734375 -3.25 L 8.734375 -0.5 C 8.734375 -0.351562 8.6875 -0.234375 8.59375 -0.140625 C 8.507812 -0.046875 8.394531 0 8.25 0 C 8.101562 0 7.984375 -0.046875 7.890625 -0.140625 C 7.796875 -0.234375 7.75 -0.351562 7.75 -0.5 L 7.75 -3.234375 C 7.75 -4.140625 7.375 -4.59375 6.625 -4.59375 C 6.351562 -4.59375 6.109375 -4.53125 5.890625 -4.40625 C 5.671875 -4.289062 5.5 -4.128906 5.375 -3.921875 C 5.257812 -3.710938 5.203125 -3.484375 5.203125 -3.234375 L 5.203125 -0.5 C 5.203125 -0.351562 5.15625 -0.234375 5.0625 -0.140625 C 4.96875 -0.046875 4.851562 0 4.71875 0 C 4.570312 0 4.453125 -0.046875 4.359375 -0.140625 C 4.273438 -0.234375 4.234375 -0.351562 4.234375 -0.5 L 4.234375 -3.25 C 4.234375 -3.65625 4.144531 -3.976562 3.96875 -4.21875 C 3.800781 -4.46875 3.515625 -4.59375 3.109375 -4.59375 C 2.703125 -4.59375 2.367188 -4.460938 2.109375 -4.203125 C 1.847656 -3.941406 1.71875 -3.625 1.71875 -3.25 L 1.71875 -0.5 C 1.71875 -0.351562 1.671875 -0.234375 1.578125 -0.140625 C 1.484375 -0.046875 1.363281 0 1.21875 0 C 1.070312 0 0.953125 -0.046875 0.859375 -0.140625 C 0.773438 -0.234375 0.734375 -0.351562 0.734375 -0.5 L 0.734375 -4.90625 C 0.734375 -5.039062 0.78125 -5.15625 0.875 -5.25 C 0.96875 -5.351562 1.082031 -5.40625 1.21875 -5.40625 C 1.363281 -5.40625 1.484375 -5.351562 1.578125 -5.25 C 1.671875 -5.15625 1.71875 -5.039062 1.71875 -4.90625 L 1.71875 -4.546875 C 1.894531 -4.816406 2.128906 -5.039062 2.421875 -5.21875 C 2.722656 -5.40625 3.050781 -5.5 3.40625 -5.5 C 4.257812 -5.5 4.8125 -5.117188 5.0625 -4.359375 C 5.21875 -4.648438 5.46875 -4.910156 5.8125 -5.140625 C 6.164062 -5.378906 6.539062 -5.5 6.9375 -5.5 Z M 6.9375 -5.5 "/></g></g></g><g fill="#000000" fill-opacity="1"><g transform="translate(170.549351, 233.089789)"><g><path d="M 6.9375 -5.5 C 8.132812 -5.5 8.734375 -4.75 8.734375 -3.25 L 8.734375 -0.5 C 8.734375 -0.351562 8.6875 -0.234375 8.59375 -0.140625 C 8.507812 -0.046875 8.394531 0 8.25 0 C 8.101562 0 7.984375 -0.046875 7.890625 -0.140625 C 7.796875 -0.234375 7.75 -0.351562 7.75 -0.5 L 7.75 -3.234375 C 7.75 -4.140625 7.375 -4.59375 6.625 -4.59375 C 6.351562 -4.59375 6.109375 -4.53125 5.890625 -4.40625 C 5.671875 -4.289062 5.5 -4.128906 5.375 -3.921875 C 5.257812 -3.710938 5.203125 -3.484375 5.203125 -3.234375 L 5.203125 -0.5 C 5.203125 -0.351562 5.15625 -0.234375 5.0625 -0.140625 C 4.96875 -0.046875 4.851562 0 4.71875 0 C 4.570312 0 4.453125 -0.046875 4.359375 -0.140625 C 4.273438 -0.234375 4.234375 -0.351562 4.234375 -0.5 L 4.234375 -3.25 C 4.234375 -3.65625 4.144531 -3.976562 3.96875 -4.21875 C 3.800781 -4.46875 3.515625 -4.59375 3.109375 -4.59375 C 2.703125 -4.59375 2.367188 -4.460938 2.109375 -4.203125 C 1.847656 -3.941406 1.71875 -3.625 1.71875 -3.25 L 1.71875 -0.5 C 1.71875 -0.351562 1.671875 -0.234375 1.578125 -0.140625 C 1.484375 -0.046875 1.363281 0 1.21875 0 C 1.070312 0 0.953125 -0.046875 0.859375 -0.140625 C 0.773438 -0.234375 0.734375 -0.351562 0.734375 -0.5 L 0.734375 -4.90625 C 0.734375 -5.039062 0.78125 -5.15625 0.875 -5.25 C 0.96875 -5.351562 1.082031 -5.40625 1.21875 -5.40625 C 1.363281 -5.40625 1.484375 -5.351562 1.578125 -5.25 C 1.671875 -5.15625 1.71875 -5.039062 1.71875 -4.90625 L 1.71875 -4.546875 C 1.894531 -4.816406 2.128906 -5.039062 2.421875 -5.21875 C 2.722656 -5.40625 3.050781 -5.5 3.40625 -5.5 C 4.257812 -5.5 4.8125 -5.117188 5.0625 -4.359375 C 5.21875 -4.648438 5.46875 -4.910156 5.8125 -5.140625 C 6.164062 -5.378906 6.539062 -5.5 6.9375 -5.5 Z M 6.9375 -5.5 "/></g></g></g><g fill="#000000" fill-opacity="1"><g transform="translate(186.725671, 233.089789)"><g><path d="M 4.75 -5.40625 C 4.894531 -5.40625 5.015625 -5.351562 5.109375 -5.25 C 5.203125 -5.15625 5.25 -5.039062 5.25 -4.90625 L 5.25 -2.171875 C 5.25 -1.453125 5.050781 -0.894531 4.65625 -0.5 C 4.257812 -0.101562 3.703125 0.09375 2.984375 0.09375 C 2.265625 0.09375 1.707031 -0.101562 1.3125 -0.5 C 0.925781 -0.894531 0.734375 -1.453125 0.734375 -2.171875 L 0.734375 -4.90625 C 0.734375 -5.039062 0.78125 -5.15625 0.875 -5.25 C 0.96875 -5.351562 1.082031 -5.40625 1.21875 -5.40625 C 1.363281 -5.40625 1.484375 -5.351562 1.578125 -5.25 C 1.671875 -5.15625 1.71875 -5.039062 1.71875 -4.90625 L 1.71875 -2.171875 C 1.71875 -1.265625 2.140625 -0.8125 2.984375 -0.8125 C 3.398438 -0.8125 3.71875 -0.925781 3.9375 -1.15625 C 4.15625 -1.382812 4.265625 -1.722656 4.265625 -2.171875 L 4.265625 -4.90625 C 4.265625 -5.039062 4.3125 -5.15625 4.40625 -5.25 C 4.5 -5.351562 4.613281 -5.40625 4.75 -5.40625 Z M 4.75 -5.40625 "/></g></g></g><g fill="#000000" fill-opacity="1"><g transform="translate(199.420332, 233.089789)"><g><path d="M 3.484375 -5.53125 C 4.722656 -5.53125 5.34375 -4.785156 5.34375 -3.296875 L 5.34375 -0.5 C 5.34375 -0.351562 5.296875 -0.234375 5.203125 -0.140625 C 5.109375 -0.046875 4.988281 0 4.84375 0 C 4.707031 0 4.59375 -0.046875 4.5 -0.140625 C 4.40625 -0.234375 4.359375 -0.351562 4.359375 -0.5 L 4.359375 -3.296875 C 4.359375 -3.691406 4.265625 -4.007812 4.078125 -4.25 C 3.898438 -4.5 3.597656 -4.625 3.171875 -4.625 C 2.898438 -4.625 2.648438 -4.5625 2.421875 -4.4375 C 2.203125 -4.320312 2.03125 -4.160156 1.90625 -3.953125 C 1.78125 -3.753906 1.71875 -3.535156 1.71875 -3.296875 L 1.71875 -0.5 C 1.71875 -0.351562 1.671875 -0.234375 1.578125 -0.140625 C 1.484375 -0.046875 1.363281 0 1.21875 0 C 1.070312 0 0.953125 -0.046875 0.859375 -0.140625 C 0.773438 -0.234375 0.734375 -0.351562 0.734375 -0.5 L 0.734375 -4.90625 C 0.734375 -5.039062 0.78125 -5.15625 0.875 -5.25 C 0.96875 -5.351562 1.082031 -5.40625 1.21875 -5.40625 C 1.363281 -5.40625 1.484375 -5.351562 1.578125 -5.25 C 1.671875 -5.15625 1.71875 -5.039062 1.71875 -4.90625 L 1.71875 -4.546875 C 1.894531 -4.816406 2.140625 -5.046875 2.453125 -5.234375 C 2.773438 -5.429688 3.117188 -5.53125 3.484375 -5.53125 Z M 3.484375 -5.53125 "/></g></g></g><g fill="#000000" fill-opacity="1"><g transform="translate(212.207702, 233.089789)"><g><path d="M 1.65625 -0.5 C 1.65625 -0.351562 1.609375 -0.234375 1.515625 -0.140625 C 1.421875 -0.046875 1.304688 0 1.171875 0 C 1.023438 0 0.90625 -0.046875 0.8125 -0.140625 C 0.726562 -0.234375 0.6875 -0.351562 0.6875 -0.5 L 0.6875 -4.953125 C 0.6875 -5.097656 0.726562 -5.21875 0.8125 -5.3125 C 0.90625 -5.40625 1.023438 -5.453125 1.171875 -5.453125 C 1.304688 -5.453125 1.421875 -5.40625 1.515625 -5.3125 C 1.609375 -5.21875 1.65625 -5.097656 1.65625 -4.953125 Z M 1.15625 -6.140625 C 0.957031 -6.140625 0.816406 -6.175781 0.734375 -6.25 C 0.648438 -6.320312 0.609375 -6.4375 0.609375 -6.59375 L 0.609375 -6.75 C 0.609375 -6.914062 0.65625 -7.03125 0.75 -7.09375 C 0.84375 -7.164062 0.984375 -7.203125 1.171875 -7.203125 C 1.359375 -7.203125 1.492188 -7.164062 1.578125 -7.09375 C 1.671875 -7.019531 1.71875 -6.90625 1.71875 -6.75 L 1.71875 -6.59375 C 1.71875 -6.425781 1.671875 -6.304688 1.578125 -6.234375 C 1.492188 -6.171875 1.351562 -6.140625 1.15625 -6.140625 Z M 1.15625 -6.140625 "/></g></g></g><g fill="#000000" fill-opacity="1"><g transform="translate(221.266198, 233.089789)"><g><path d="M 2.203125 -4.4375 L 2.203125 -1.375 C 2.203125 -1.03125 2.351562 -0.859375 2.65625 -0.859375 C 2.707031 -0.859375 2.773438 -0.867188 2.859375 -0.890625 C 2.941406 -0.910156 3.003906 -0.921875 3.046875 -0.921875 C 3.140625 -0.921875 3.21875 -0.882812 3.28125 -0.8125 C 3.34375 -0.738281 3.375 -0.644531 3.375 -0.53125 C 3.375 -0.382812 3.289062 -0.257812 3.125 -0.15625 C 2.957031 -0.0507812 2.769531 0 2.5625 0 C 2.34375 0 2.132812 -0.0195312 1.9375 -0.0625 C 1.75 -0.113281 1.582031 -0.238281 1.4375 -0.4375 C 1.289062 -0.632812 1.21875 -0.929688 1.21875 -1.328125 L 1.21875 -4.4375 L 0.625 -4.4375 C 0.488281 -4.4375 0.378906 -4.476562 0.296875 -4.5625 C 0.210938 -4.65625 0.171875 -4.769531 0.171875 -4.90625 C 0.171875 -5.03125 0.210938 -5.132812 0.296875 -5.21875 C 0.378906 -5.300781 0.488281 -5.34375 0.625 -5.34375 L 1.21875 -5.34375 L 1.21875 -6.203125 C 1.21875 -6.347656 1.265625 -6.46875 1.359375 -6.5625 C 1.453125 -6.65625 1.570312 -6.703125 1.71875 -6.703125 C 1.851562 -6.703125 1.96875 -6.65625 2.0625 -6.5625 C 2.15625 -6.46875 2.203125 -6.347656 2.203125 -6.203125 L 2.203125 -5.34375 L 3.046875 -5.34375 C 3.179688 -5.34375 3.289062 -5.296875 3.375 -5.203125 C 3.457031 -5.117188 3.5 -5.015625 3.5 -4.890625 C 3.5 -4.753906 3.457031 -4.644531 3.375 -4.5625 C 3.289062 -4.476562 3.179688 -4.4375 3.046875 -4.4375 Z M 2.203125 -4.4375 "/></g></g></g><g fill="#000000" fill-opacity="1"><g transform="translate(231.900717, 233.089789)"><g><path d="M 4.75 -5.453125 C 4.894531 -5.453125 5.015625 -5.40625 5.109375 -5.3125 C 5.203125 -5.21875 5.25 -5.097656 5.25 -4.953125 L 5.25 -0.5 C 5.25 0.351562 5.007812 0.992188 4.53125 1.421875 C 4.0625 1.847656 3.4375 2.0625 2.65625 2.0625 C 2.40625 2.0625 2.15625 2.035156 1.90625 1.984375 C 1.65625 1.941406 1.453125 1.878906 1.296875 1.796875 C 1.046875 1.679688 0.921875 1.519531 0.921875 1.3125 C 0.921875 1.28125 0.925781 1.238281 0.9375 1.1875 C 0.976562 1.070312 1.035156 0.984375 1.109375 0.921875 C 1.191406 0.859375 1.28125 0.828125 1.375 0.828125 C 1.425781 0.828125 1.476562 0.835938 1.53125 0.859375 C 1.738281 0.953125 1.925781 1.023438 2.09375 1.078125 C 2.257812 1.140625 2.453125 1.171875 2.671875 1.171875 C 3.734375 1.171875 4.265625 0.625 4.265625 -0.46875 L 4.265625 -0.6875 C 4.078125 -0.4375 3.835938 -0.238281 3.546875 -0.09375 C 3.253906 0.0390625 2.921875 0.109375 2.546875 0.109375 C 1.972656 0.109375 1.523438 -0.0703125 1.203125 -0.4375 C 0.890625 -0.800781 0.734375 -1.28125 0.734375 -1.875 L 0.734375 -4.953125 C 0.734375 -5.097656 0.773438 -5.21875 0.859375 -5.3125 C 0.953125 -5.40625 1.070312 -5.453125 1.21875 -5.453125 C 1.363281 -5.453125 1.484375 -5.40625 1.578125 -5.3125 C 1.671875 -5.21875 1.71875 -5.097656 1.71875 -4.953125 L 1.71875 -2.140625 C 1.71875 -1.679688 1.816406 -1.34375 2.015625 -1.125 C 2.210938 -0.90625 2.515625 -0.796875 2.921875 -0.796875 C 3.304688 -0.796875 3.625 -0.921875 3.875 -1.171875 C 4.132812 -1.421875 4.265625 -1.742188 4.265625 -2.140625 L 4.265625 -4.953125 C 4.265625 -5.097656 4.304688 -5.21875 4.390625 -5.3125 C 4.484375 -5.40625 4.601562 -5.453125 4.75 -5.453125 Z M 4.75 -5.453125 "/></g></g></g><g fill="#000000" fill-opacity="1"><g transform="translate(244.585084, 233.089789)"><g><path d="M 1.078125 -0.015625 C 0.910156 -0.015625 0.785156 -0.0546875 0.703125 -0.140625 C 0.617188 -0.234375 0.578125 -0.363281 0.578125 -0.53125 L 0.578125 -0.734375 C 0.578125 -0.898438 0.617188 -1.023438 0.703125 -1.109375 C 0.785156 -1.203125 0.910156 -1.25 1.078125 -1.25 L 1.1875 -1.25 C 1.351562 -1.25 1.476562 -1.203125 1.5625 -1.109375 C 1.65625 -1.023438 1.703125 -0.898438 1.703125 -0.734375 L 1.703125 -0.53125 C 1.703125 -0.1875 1.53125 -0.015625 1.1875 -0.015625 Z M 1.078125 -0.015625 "/></g></g></g><g fill="#000000" fill-opacity="1"><g transform="translate(149.680931, 247.339789)"><g><path d="M 3.890625 -7.21875 C 4.535156 -7.21875 5.085938 -7.054688 5.546875 -6.734375 C 6.003906 -6.410156 6.347656 -5.972656 6.578125 -5.421875 C 6.816406 -4.878906 6.9375 -4.273438 6.9375 -3.609375 C 6.9375 -2.929688 6.816406 -2.316406 6.578125 -1.765625 C 6.347656 -1.222656 6.003906 -0.789062 5.546875 -0.46875 C 5.085938 -0.15625 4.535156 0 3.890625 0 L 1.34375 0 C 1.207031 0 1.09375 -0.046875 1 -0.140625 C 0.90625 -0.234375 0.859375 -0.351562 0.859375 -0.5 L 0.859375 -6.71875 C 0.859375 -6.863281 0.90625 -6.984375 1 -7.078125 C 1.09375 -7.171875 1.207031 -7.21875 1.34375 -7.21875 Z M 3.78125 -0.953125 C 4.488281 -0.953125 5.015625 -1.195312 5.359375 -1.6875 C 5.710938 -2.1875 5.890625 -2.828125 5.890625 -3.609375 C 5.890625 -4.378906 5.710938 -5.015625 5.359375 -5.515625 C 5.003906 -6.015625 4.476562 -6.265625 3.78125 -6.265625 L 1.875 -6.265625 L 1.875 -0.953125 Z M 3.78125 -0.953125 "/></g></g></g><g fill="#000000" fill-opacity="1"><g transform="translate(163.786797, 247.339789)"><g><path d="M 5.46875 -2.90625 C 5.46875 -2.78125 5.414062 -2.675781 5.3125 -2.59375 C 5.21875 -2.507812 5.109375 -2.46875 4.984375 -2.46875 L 1.34375 -2.46875 C 1.394531 -1.96875 1.585938 -1.5625 1.921875 -1.25 C 2.253906 -0.945312 2.660156 -0.796875 3.140625 -0.796875 C 3.472656 -0.796875 3.742188 -0.84375 3.953125 -0.9375 C 4.160156 -1.039062 4.34375 -1.164062 4.5 -1.3125 C 4.601562 -1.375 4.703125 -1.40625 4.796875 -1.40625 C 4.910156 -1.40625 5.003906 -1.363281 5.078125 -1.28125 C 5.160156 -1.207031 5.203125 -1.113281 5.203125 -1 C 5.203125 -0.851562 5.132812 -0.722656 5 -0.609375 C 4.800781 -0.410156 4.535156 -0.238281 4.203125 -0.09375 C 3.878906 0.0390625 3.546875 0.109375 3.203125 0.109375 C 2.640625 0.109375 2.144531 -0.00390625 1.71875 -0.234375 C 1.300781 -0.472656 0.976562 -0.800781 0.75 -1.21875 C 0.519531 -1.644531 0.40625 -2.125 0.40625 -2.65625 C 0.40625 -3.226562 0.519531 -3.734375 0.75 -4.171875 C 0.988281 -4.609375 1.300781 -4.941406 1.6875 -5.171875 C 2.082031 -5.410156 2.503906 -5.53125 2.953125 -5.53125 C 3.390625 -5.53125 3.800781 -5.414062 4.1875 -5.1875 C 4.570312 -4.957031 4.878906 -4.644531 5.109375 -4.25 C 5.347656 -3.851562 5.46875 -3.40625 5.46875 -2.90625 Z M 2.953125 -4.625 C 2.566406 -4.625 2.234375 -4.515625 1.953125 -4.296875 C 1.671875 -4.078125 1.484375 -3.742188 1.390625 -3.296875 L 4.4375 -3.296875 L 4.4375 -3.375 C 4.40625 -3.738281 4.238281 -4.035156 3.9375 -4.265625 C 3.644531 -4.503906 3.316406 -4.625 2.953125 -4.625 Z M 2.953125 -4.625 "/></g></g></g><g fill="#000000" fill-opacity="1"><g transform="translate(176.37845, 247.339789)"><g><path d="M 0.421875 -0.84375 C 0.359375 -0.9375 0.328125 -1.03125 0.328125 -1.125 C 0.328125 -1.257812 0.398438 -1.375 0.546875 -1.46875 C 0.617188 -1.519531 0.695312 -1.546875 0.78125 -1.546875 C 0.90625 -1.546875 1.019531 -1.492188 1.125 -1.390625 C 1.332031 -1.160156 1.550781 -0.984375 1.78125 -0.859375 C 2.019531 -0.742188 2.304688 -0.6875 2.640625 -0.6875 C 2.898438 -0.695312 3.128906 -0.757812 3.328125 -0.875 C 3.523438 -0.988281 3.625 -1.171875 3.625 -1.421875 C 3.625 -1.660156 3.519531 -1.835938 3.3125 -1.953125 C 3.113281 -2.078125 2.820312 -2.191406 2.4375 -2.296875 C 2.050781 -2.398438 1.726562 -2.507812 1.46875 -2.625 C 1.21875 -2.738281 1.003906 -2.898438 0.828125 -3.109375 C 0.648438 -3.328125 0.5625 -3.613281 0.5625 -3.96875 C 0.5625 -4.28125 0.648438 -4.550781 0.828125 -4.78125 C 1.003906 -5.019531 1.238281 -5.203125 1.53125 -5.328125 C 1.820312 -5.460938 2.140625 -5.53125 2.484375 -5.53125 C 2.816406 -5.53125 3.144531 -5.46875 3.46875 -5.34375 C 3.789062 -5.21875 4.054688 -5.03125 4.265625 -4.78125 C 4.347656 -4.675781 4.390625 -4.570312 4.390625 -4.46875 C 4.390625 -4.363281 4.335938 -4.257812 4.234375 -4.15625 C 4.160156 -4.09375 4.070312 -4.0625 3.96875 -4.0625 C 3.84375 -4.0625 3.742188 -4.101562 3.671875 -4.1875 C 3.523438 -4.351562 3.347656 -4.476562 3.140625 -4.5625 C 2.929688 -4.65625 2.695312 -4.703125 2.4375 -4.703125 C 2.175781 -4.703125 1.953125 -4.648438 1.765625 -4.546875 C 1.585938 -4.441406 1.5 -4.257812 1.5 -4 C 1.507812 -3.757812 1.613281 -3.582031 1.8125 -3.46875 C 2.019531 -3.351562 2.332031 -3.238281 2.75 -3.125 C 3.113281 -3.03125 3.414062 -2.925781 3.65625 -2.8125 C 3.894531 -2.707031 4.097656 -2.546875 4.265625 -2.328125 C 4.429688 -2.109375 4.515625 -1.820312 4.515625 -1.46875 C 4.515625 -1.144531 4.421875 -0.863281 4.234375 -0.625 C 4.046875 -0.394531 3.800781 -0.210938 3.5 -0.078125 C 3.207031 0.046875 2.894531 0.109375 2.5625 0.109375 C 2.125 0.109375 1.71875 0.0351562 1.34375 -0.109375 C 0.976562 -0.265625 0.671875 -0.507812 0.421875 -0.84375 Z M 0.421875 -0.84375 "/></g></g></g><g fill="#000000" fill-opacity="1"><g transform="translate(188.012141, 247.339789)"><g><path d="M 1.65625 -0.5 C 1.65625 -0.351562 1.609375 -0.234375 1.515625 -0.140625 C 1.421875 -0.046875 1.304688 0 1.171875 0 C 1.023438 0 0.90625 -0.046875 0.8125 -0.140625 C 0.726562 -0.234375 0.6875 -0.351562 0.6875 -0.5 L 0.6875 -4.953125 C 0.6875 -5.097656 0.726562 -5.21875 0.8125 -5.3125 C 0.90625 -5.40625 1.023438 -5.453125 1.171875 -5.453125 C 1.304688 -5.453125 1.421875 -5.40625 1.515625 -5.3125 C 1.609375 -5.21875 1.65625 -5.097656 1.65625 -4.953125 Z M 1.15625 -6.140625 C 0.957031 -6.140625 0.816406 -6.175781 0.734375 -6.25 C 0.648438 -6.320312 0.609375 -6.4375 0.609375 -6.59375 L 0.609375 -6.75 C 0.609375 -6.914062 0.65625 -7.03125 0.75 -7.09375 C 0.84375 -7.164062 0.984375 -7.203125 1.171875 -7.203125 C 1.359375 -7.203125 1.492188 -7.164062 1.578125 -7.09375 C 1.671875 -7.019531 1.71875 -6.90625 1.71875 -6.75 L 1.71875 -6.59375 C 1.71875 -6.425781 1.671875 -6.304688 1.578125 -6.234375 C 1.492188 -6.171875 1.351562 -6.140625 1.15625 -6.140625 Z M 1.15625 -6.140625 "/></g></g></g><g fill="#000000" fill-opacity="1"><g transform="translate(197.070637, 247.339789)"><g><path d="M 5.25 -5.46875 C 5.394531 -5.46875 5.515625 -5.421875 5.609375 -5.328125 C 5.703125 -5.242188 5.75 -5.125 5.75 -4.96875 L 5.75 -0.4375 C 5.75 0.125 5.628906 0.59375 5.390625 0.96875 C 5.148438 1.34375 4.828125 1.617188 4.421875 1.796875 C 4.015625 1.972656 3.554688 2.0625 3.046875 2.0625 C 2.773438 2.0625 2.453125 2.015625 2.078125 1.921875 C 1.710938 1.828125 1.476562 1.726562 1.375 1.625 C 1.164062 1.507812 1.0625 1.367188 1.0625 1.203125 C 1.0625 1.160156 1.078125 1.109375 1.109375 1.046875 C 1.179688 0.867188 1.304688 0.78125 1.484375 0.78125 C 1.578125 0.78125 1.675781 0.800781 1.78125 0.84375 C 2.320312 1.0625 2.75 1.171875 3.0625 1.171875 C 3.613281 1.171875 4.035156 1.035156 4.328125 0.765625 C 4.617188 0.503906 4.765625 0.144531 4.765625 -0.3125 L 4.765625 -0.875 C 4.617188 -0.601562 4.375 -0.367188 4.03125 -0.171875 C 3.695312 0.015625 3.335938 0.109375 2.953125 0.109375 C 2.484375 0.109375 2.050781 -0.0078125 1.65625 -0.25 C 1.269531 -0.5 0.960938 -0.835938 0.734375 -1.265625 C 0.515625 -1.691406 0.40625 -2.175781 0.40625 -2.71875 C 0.40625 -3.25 0.515625 -3.726562 0.734375 -4.15625 C 0.960938 -4.59375 1.269531 -4.929688 1.65625 -5.171875 C 2.039062 -5.410156 2.46875 -5.53125 2.9375 -5.53125 C 3.3125 -5.53125 3.660156 -5.441406 3.984375 -5.265625 C 4.316406 -5.097656 4.578125 -4.890625 4.765625 -4.640625 L 4.765625 -4.96875 C 4.765625 -5.113281 4.804688 -5.234375 4.890625 -5.328125 C 4.984375 -5.421875 5.101562 -5.46875 5.25 -5.46875 Z M 3.078125 -0.796875 C 3.410156 -0.796875 3.707031 -0.878906 3.96875 -1.046875 C 4.226562 -1.210938 4.429688 -1.441406 4.578125 -1.734375 C 4.734375 -2.023438 4.8125 -2.351562 4.8125 -2.71875 C 4.8125 -3.082031 4.734375 -3.40625 4.578125 -3.6875 C 4.429688 -3.976562 4.226562 -4.207031 3.96875 -4.375 C 3.707031 -4.539062 3.410156 -4.625 3.078125 -4.625 C 2.742188 -4.625 2.445312 -4.539062 2.1875 -4.375 C 1.925781 -4.207031 1.71875 -3.976562 1.5625 -3.6875 C 1.414062 -3.394531 1.34375 -3.070312 1.34375 -2.71875 C 1.34375 -2.351562 1.414062 -2.023438 1.5625 -1.734375 C 1.71875 -1.441406 1.925781 -1.210938 2.1875 -1.046875 C 2.445312 -0.878906 2.742188 -0.796875 3.078125 -0.796875 Z M 3.078125 -0.796875 "/></g></g></g><g fill="#000000" fill-opacity="1"><g transform="translate(210.24944, 247.339789)"><g><path d="M 3.484375 -5.53125 C 4.722656 -5.53125 5.34375 -4.785156 5.34375 -3.296875 L 5.34375 -0.5 C 5.34375 -0.351562 5.296875 -0.234375 5.203125 -0.140625 C 5.109375 -0.046875 4.988281 0 4.84375 0 C 4.707031 0 4.59375 -0.046875 4.5 -0.140625 C 4.40625 -0.234375 4.359375 -0.351562 4.359375 -0.5 L 4.359375 -3.296875 C 4.359375 -3.691406 4.265625 -4.007812 4.078125 -4.25 C 3.898438 -4.5 3.597656 -4.625 3.171875 -4.625 C 2.898438 -4.625 2.648438 -4.5625 2.421875 -4.4375 C 2.203125 -4.320312 2.03125 -4.160156 1.90625 -3.953125 C 1.78125 -3.753906 1.71875 -3.535156 1.71875 -3.296875 L 1.71875 -0.5 C 1.71875 -0.351562 1.671875 -0.234375 1.578125 -0.140625 C 1.484375 -0.046875 1.363281 0 1.21875 0 C 1.070312 0 0.953125 -0.046875 0.859375 -0.140625 C 0.773438 -0.234375 0.734375 -0.351562 0.734375 -0.5 L 0.734375 -4.90625 C 0.734375 -5.039062 0.78125 -5.15625 0.875 -5.25 C 0.96875 -5.351562 1.082031 -5.40625 1.21875 -5.40625 C 1.363281 -5.40625 1.484375 -5.351562 1.578125 -5.25 C 1.671875 -5.15625 1.71875 -5.039062 1.71875 -4.90625 L 1.71875 -4.546875 C 1.894531 -4.816406 2.140625 -5.046875 2.453125 -5.234375 C 2.773438 -5.429688 3.117188 -5.53125 3.484375 -5.53125 Z M 3.484375 -5.53125 "/></g></g></g><g fill="#000000" fill-opacity="1"><g transform="translate(223.036811, 247.339789)"><g><path d="M 1.078125 -0.015625 C 0.910156 -0.015625 0.785156 -0.0546875 0.703125 -0.140625 C 0.617188 -0.234375 0.578125 -0.363281 0.578125 -0.53125 L 0.578125 -0.734375 C 0.578125 -0.898438 0.617188 -1.023438 0.703125 -1.109375 C 0.785156 -1.203125 0.910156 -1.25 1.078125 -1.25 L 1.1875 -1.25 C 1.351562 -1.25 1.476562 -1.203125 1.5625 -1.109375 C 1.65625 -1.023438 1.703125 -0.898438 1.703125 -0.734375 L 1.703125 -0.53125 C 1.703125 -0.1875 1.53125 -0.015625 1.1875 -0.015625 Z M 1.078125 -0.015625 "/></g></g></g></svg>
    